<svg width="62" height="43" viewBox="0 0 62 43" fill="none" xmlns="http://www.w3.org/2000/svg"><path fill-rule="evenodd" clip-rule="evenodd" d="m22.378 4.833.006-.002zm.006-.002c.01-.01.067-.14.13-.29l.74-1.955c.161-.417.949-.865 2.284-.764C26.12.664 27.089.646 27.92.791q.992.097 1.039-.069.037-.139-.593-.462l-.01-.006-.008-.003c-.139-.076-.168-.136.056-.167 1.875-.256 2.526.133 2.918.367.095.057.175.105.254.132 0 0 .271.108.463.076.14-.024.003-.145-.132-.265-.15-.133-.3-.266-.073-.266 1.296 0 1.912.403 2.402.722.322.21.589.385.958.385.93 0 .184-.57-.025-.68-.325-.172-.228-.277.206-.24.254.024.422.133.552.217.11.071.191.124.273.09.102-.04.062-.107.018-.18-.043-.073-.09-.152-.014-.22.224-.208 1.15.552 1.15.861a.34.34 0 0 1-.102.223 1 1 0 0 1-.08.075q-.052.044-.097.096l-.007.009c-.028.035-.07.087-.058.13.019.068.133.077.2.082l.022.001.053.005c.079.005.175.011.23.062a.1.1 0 0 1 .036.056c.031.09-.056.172-.13.208q-.11.051-.223.09l-.136.053-.04.027c-.103.07-.155.104-.168.171s.02.124.052.176c.03.052.06.1.042.155-.027.088-.155.132-.242.143l-.061.01c-.279.04-.488.03-.488.03l-.042-.003a3 3 0 0 1-.56-.06 3 3 0 0 1-.426-.13c-.52-.202-.982-.575-1.152-.72q-.003.001-.028-.023l-.028-.026-.06-.054-.128-.116c-.08-.073-.16-.145-.204-.187-.118-.109-.278-.105-.347-.015-.067.089-.027.182.012.272.05.118.097.23-.1.315-.454.195-1.133.38-1.572.062-.072-.053-.098-.137-.123-.221-.03-.097-.059-.195-.16-.245-.207-.101-.24.054-.25.211a.5.5 0 0 1-.018.143l-.004.018c-.061.26-.23.608-.435.608a.36.36 0 0 1-.303-.133l-.001-.001c-.024-.025-.143-.155-.256-.21-.132-.064-.245-.058-.404-.05q-.058.004-.125.006c-.163.006-.282-.09-.451-.226a3 3 0 0 0-.826-.5c-1.696-.68-2.018.296-2.018.296s.712.09 1.272.58c.437.381.437.788.412.894l-.009.034c-.06.25-.291 1.204.175 1.646.076.081.18.159.323.235q.143.08.323.143c.335.126.019.464-.467.28q-.151-.06-.36-.164c-.527-.256-1.351-.655-2.655-.703q-.001-.18-.005-.36-.005-.18-.006-.36v-.097l-.002-.13a.23.23 0 0 0-.063-.163c-.056-.05-.134-.05-.15-.05-.108.002-.218.1-.307.253a1.6 1.6 0 0 0-.191.86s-1.209-.268-2.054.037m-.008.003-.016.004s.005.002.016-.004m38.025 6.444c.244.089.48.23.681.445l.004-.002c.345.368.914.621.914.621s-1.631.293-2.639-.3a3 3 0 0 0-.314-.155l-.002-.009q-.004-.009-.004-.018l-.029.013a11 11 0 0 0-1.056-.298c-.165-.033-.27-.045-.37-.057l-.134-.017c-.314-.045-.536-.128-.85-.246h-.001a6 6 0 0 1-.943-.448 3 3 0 0 1-.544-.343c-1.4-1.11-1.923-1.294-2.985-1.617 0 0 2.583-.686 4.123.443.385.281.654.534.864.757h.002q.105.11.19.209v.004q.06.07.133.146c.182.197.28.296.406.39.213.16.408.237.472.26a2.1 2.1 0 0 0 .878.111l.26-.017h.014a3 3 0 0 1 .287 0h.027l.058.006.054.005.06.007q.084.011.168.03h.002l.007.002.005.001.013.003a2 2 0 0 1 .24.071zm-12.477 8.18.02.007.017-.01a.42.42 0 0 0 .21-.467l-.005-.022-.022-.009-.369-.15c-1.727-.707-9.005-3.682-11.439-4.637-2.736-1.073-3.383-1.743-3.389-1.75l-.029-.032-.032.028c-.73.625-.565 1.413-.564 1.42l.01.038h.037c.719-.043 2.98.835 3.074.871l.003.002 12.481 4.712zm-12.475 12.95c-1.299-.118-1.969-.292-2.336-.454l-.026-.012c-.185-.084-.87-.392-1.82-.633 0 0-.207-.008-.514-.017-.817-.021-2.33-.045-2.428.056 0 0-.788.895-.901 1.977-.03.36.009.502.009.502.178.043 3.047.713 4.866-.002 1.878-.739 3.293-1.12 5.366-.905-.782-.482-1.55-.556-2.214-.511zM21.268 33.64c.766-.068 1.28-.04 1.28-.04h.002c.011.181-.1.41-.226.611-.18.303-.34.45-.34.45l-1.009-.11a64 64 0 0 0-1.86-.105h-.007a4 4 0 0 1-.696-.072l-.124-.027-.026-.006c-.134-.056-.164-.101-.164-.132.003-.126.495-.215.89-.287l.02-.004c.14-.025.266-.043.513-.075a54 54 0 0 1 1.265-.152l.023-.002q.238-.03.453-.049zm3.759.18h-.002zm0 0c2.364.725 1.923 1.6 1.827 1.79l-.007.013c-.023.049-.097.106-.198.153-.322.172-.605.044-.605.044a.7.7 0 0 1-.298-.197 1 1 0 0 0-.129-.118c-.211-.2-.549-.269-.549-.269-.245-.068-.442-.074-.442-.074.374-.67.4-1.32.4-1.341m-2.936 1.354h-.002zm0 0c-.489.815 1.158 1.102 1.781 1.192.622.092.676-.627.676-.627-.602.151-2.398-.542-2.457-.565m.672-.31c.063.037.14.064.212.082l.123.032h.004c.236.061.474.122.716.158.11.016.231.03.327-.026.128-.077.157-.247.172-.397q.083-.876.1-1.758c.45-1.875 1.61-6.72 1.614-6.889a.5.5 0 0 0-.025-.16.44.44 0 0 0-.183-.22l-.016-.008-.014-.014-.013-.012-.006-.005c-.032-.047-.031-.096-.03-.145 0-.052 0-.105-.038-.158a.25.25 0 0 0-.193-.094c-.107 0-.207.076-.259.19l-1.736 7.026v.002q-.27.57-.536 1.143l-.28.598a1 1 0 0 0-.114.36c-.005.142.072.236.179.296zm-4.456.089s-.424-.112-.625-.407a.53.53 0 0 1-.112-.34c.018-.216.22-.41.511-.494.957-.278 2.334-.57 3.819-.519.128-.24.278-.594.1-.798a.3.3 0 0 0-.156-.098h.002l-.024-.009-.008-.002-.012-.003c-2.948-.719-4.214-1.118-4.801-1.357-.2-.08-.405-.149-.611-.217a13 13 0 0 1-.467-.162l-.047-.017c-.395-.147-.756-.281-1.234-.29a1.3 1.3 0 0 0-.267.007l-.057.005q-.016 0-.028.003l-.015.007c-.581.124-.892.625-.892.625 1.893-.188 2.413 1.188 2.413 1.188-1.349-.887-4.266-.28-5.91.063-.382.08-.695.145-.903.174q-.263.034-.456.054c-.69.073-.817.086-1.284.994-.554 1.078.047 1.661.817 2.185.477.325 1.022.938 1.585 1.57.345.386.696.78 1.041 1.12.563.553.704.598.868.65.101.033.21.069.433.226.38.27.768.05 1.04-.103.146-.083.259-.147.32-.107.177.116.063.708.063.708.338.044.533.188.698.31.176.13.318.234.563.167.33-.09.439-.431.473-.776q.011-.121.015-.235c.014-.098.048-.264.124-.284s.195.116.291.325c.155.343.172.508.179.58q.003.04.011.046c.008.005.021.001.049-.007.066-.021.216-.067.56-.066 1.072.004.848-.692 0-1.698-.85-1.006-1.823-.628-1.823-.628s-.29.135-.52.312c-.076.06-.147.123-.197.188-.105.074-.24.132-.381.085-.154-.05-.194-.134-.197-.2a.2.2 0 0 0 .025-.116c-.038-.239-.41-.494-1.418-.687-1.008-.191-2.066-1.99-1.851-2.184.084-.075.357-.016.759.071.62.135 1.549.337 2.564.21a13.7 13.7 0 0 1 3.837.055s.628.065 1.143-.06c.058-.014.035-.072 0-.072zm9.201-9.898c0-.392.465-1.154 1.447-1.154l.004.002c.984 0 .946.842.728 1.11-.219.27-.208.575 0 .91a.684.684 0 0 1-.6 1.024l-.535 1.528-.016.056q-.091.294-.22.62l-.05.126c-.242.596-.54 1.213-.736 1.621l-.002.003c-.134.278-.266.519-.388.742-.36.66-.639 1.17-.674 2.066 0 0-.762-.623-1.467-.83 0 0 .52-1.196.705-2.596a15 15 0 0 1 .357-1.805v-.005q.075-.275.156-.527l.522-1.77c-.231-.048-.426-.188-.426-.535 0-.862 1.195-.586 1.195-.586m-1.072-2.49a1.1 1.1 0 0 0-.405.037 1.5 1.5 0 0 0-.405.192l-.029.018q-.05.03-.097.061l-.015.01c-.173.126-.278.278-.216.435.173.431 1.228 1.024 1.228 1.024s-.117-.89.081-1.658c.02-.076-.04-.112-.142-.12M32.73 12.02a.7.7 0 0 0-.399.195l.004-.002a1 1 0 0 0-.163.213c-.115.211-.146.459-.135.7-.273-.331-.435-.742-.542-1.155-.064-.249-.11-.502-.157-.756q-.045-.252-.098-.503c-.08-.367-.184-.728-.303-1.084a26 26 0 0 0-.36-.99 2 2 0 0 1-.072-.193q.107.085.21.179l.12.106.33.284.996.86c.643.553 1.288 1.109 1.855 1.74a.8.8 0 0 1 .185.272c.087.247-.067.522-.275.683-.063.048-.162.086-.215.027a.2.2 0 0 1-.034-.077l-.004-.013a.5.5 0 0 0-.191-.228 1.4 1.4 0 0 0-.266-.155c-.153-.067-.314-.123-.486-.103m25.742 26.425c-.7 0-.887.31-1.037.557-.1.166-.184.304-.393.303-.225 0-.19-.085-.128-.229.08-.19.205-.484-.181-.817-.185-.16-.333-.276-.46-.375-.337-.265-.524-.412-.848-.949-.1-.165-.22-.353-.348-.555-.448-.705-1.008-1.586-1.234-2.292-.293-.907-1.315-1.95-1.86-1.786-.55.166-.866.07-1.188-.029-.238-.072-.48-.146-.823-.116-1.223.11-2.255-.108-2.484-.737 0 0-.078.736-.97.969-.253.065-.347.25-.446.444-.121.238-.25.491-.69.56-.174.027-.356-.022-.56-.077-.402-.109-.89-.24-1.573.138-.62.343-1.455.656-2.744-.388-.983-.795-1.908.1-1.908.1s1.03.407 1.86 1.3c.832.892 1.17.894 1.97.894.37 0 .746.102 1.146.21.465.127.96.262 1.514.254.46-.006.7-.074.94-.142.295-.084.591-.168 1.307-.134.714.034 1.4-.162 2.036-.344.517-.147 1-.286 1.442-.285.984 0 2.86 2.556 3.322 3.756.386 1.007.686 1.027 1.176 1.06l.054.004.695.525c.21.136.438.361.668.589.379.375.763.756 1.082.748.291-.007.383-.134.479-.267l.005-.006c.019-.025.098-.23.06-.542v-.009l-.008-.049-.006-.038-.008-.04c-.01-.088-.043-.373.053-.415.025-.01.054-.003.097.018a.9.9 0 0 1 .334.307 1 1 0 0 1 .136.423c.087-.023.193-.034.334-.029.302.011.534.044.717.07.33.047.5.072.64-.097.215-.262-1-2.478-2.168-2.478zM28.282 4.228c.213-.926 0-1.4 0-1.4v-.001c1.678.43 5.484 1.347 8.9.717 2.837-.524 3.93-.232 4.953.042.21.056.416.11.633.158.262.057.51.089.76.121.934.12 1.882.243 3.597 1.67 2.543 2.114 6.736 2.618 6.736 2.618-.65-.026-1.166.027-1.726.085-.738.077-1.552.16-2.844.08-1.641-.102-2.304-.352-2.956-.598-.816-.308-1.615-.61-4.291-.607-1.942.002-2.768.195-3.577.385-.78.182-1.545.36-3.278.36-4.615.001-6.228-1.885-6.228-1.885s.665.155.598-.301c-.03-.202-.31-.4-.6-.604-.365-.26-.749-.53-.677-.84m-5.878.983-.065.04c-.05.03-.088.052-.096.087-.003.01.004.03.01.045q0 .006.003.01l.004.025.007.044q.008.066.012.13.009.133 0 .264l-.006.12c-.008.133-.015.263.003.398.016.118.032.233.061.349q.021.084.05.166l.006.016c.014.04.034.097.07.116l.014.004.006.002c.188.034.376.03.566 0a2 2 0 0 0 .332-.084s.338.107.524.447c0 0 .03-.477.677-.893.23-.17.598-.332.598-.332s.81-.358.298-.482c-.244-.06-.255-.217-.263-.324-.004-.06-.007-.104-.051-.104 0 0-2.148-.45-2.756-.044zm-13.669 32.1c.208-.023.405.145.656.425l.002-.002.05.057c.265.304 1.129 1.292 2.428 1.748 0 0-.497.205-1.337.08-.283-.041-.392.04-.509.126-.124.092-.256.19-.618.148-.617-.072-.91-.59-1.146-1.008-.185-.327-.335-.593-.579-.531-.554.139-1.226.2-1.58-1.447l-.11-.515c-.308-1.445-.581-2.728-.884-3.21-.337-.54-.276-1.031 0-1.402.08-.106.153-.24.23-.382.191-.353.41-.756.827-.91.229-.083.703-.043 1.38.015.45.038.99.083 1.606.105-.143.197-.948 1.111-.948 1.111-1.043.154-1.215.592-1.373.994l-.056.139c-.035.08-.094.177-.161.286-.3.487-.759 1.232.11 2.011l.45.332c1.183.775 1.129 1.06 1.086 1.287-.013.071-.026.136.001.21.116.308.268.357.475.333M32.411 15.76l-.114-.162c-.309-.512-.901-2.052-.901-2.054a7 7 0 0 0-.161-.448c-.265-.659-.369-1.275-.47-1.878-.135-.8-.266-1.578-.764-2.401V8.81l-.007-.01-.014-.022-.036-.056a2.6 2.6 0 0 0-.3-.4l-.01-.01-.009-.01-.016-.018-.034-.04-.018-.023a.2.2 0 0 0-.043-.048 4 4 0 0 0-.264-.277 4.4 4.4 0 0 0-.74-.563l-.046-.031q-.044-.032-.09-.061a4 4 0 0 0-.33-.17l-.02-.01-.076-.034q-.006 0-.011-.004l-.004-.003-.019-.007-.01-.004c-1.288-.534-2.148-.184-2.706.251a2.8 2.8 0 0 0-.648.643q.235.014.488.02c.7.022 1.574.05 3.226.421l-.005.03c-.049.326-.467 3.117-.028 3.547.361.323.948-2.482.948-2.482.116.39.154.798.118 1.203a2.7 2.7 0 0 1-.203.872c-.124.275-.33.546-.556.753a2.6 2.6 0 0 1-.674.448q-.152.612-.352 1.263a26 26 0 0 1-.625 1.787c.152.411.262.756.336 1.004.239.793.42 1.41.455 2.205.017.378-.003.687-.023.885.296.118.367.257.388.335.054.195-.092.417-.377.722q-.079.311-.152.616-.09.324-.146.634l-.078.49c-.101.76-.087 1.333-.087 1.333s.235.065.47-.197a2 2 0 0 1 .26-.24l.23-.147a2 2 0 0 1 .54-.191l.39-.042c.404-.009.704.083.704.083s.14-.554.347-1.185c.029-.085.345-.986.607-1.443l-.004-.003.031-.053c.107-.175.23-.332.23-.332.03-.04.064-.083.113-.137a2 2 0 0 1 .298-.291 1.4 1.4 0 0 1 .28-.158l.115-.046a1 1 0 0 0 .196-.089.6.6 0 0 0 .195-.206c.067-.114.105-.251.14-.406l.13-.743s.118-.74.32-1.181c.086-.157.125-.296.058-.435a4 4 0 0 0-.169-.305c-.072-.124-.16-.275-.27-.477l-.002-.004v-.003zM53.814 39.5c.347.722.692.991 1.2 1.338v.003c.507.347.53 1.27.115 1.594-.197.153-.394-.016-.648-.233-.281-.241-.632-.542-1.13-.53-.583.014-.798-.218-1.05-.49-.157-.168-.328-.353-.611-.503l-.163-.085c-.638-.332-1.006-.523-1.176-1.716-.184-1.293-.771-2.563-.771-2.563-.118-.295-.015-.547.236-.643 0 0 .12-.11.792-.042.262.027.534.114.534.114a.55.55 0 0 1 .34.32l.016.03c.05.094.091.293.14.537v.001c.11.54.264 1.303.677 1.668.321.285.297.534.28.724-.017.163-.028.284.187.345.095.027.198-.039.308-.109.22-.141.466-.3.724.24m-11.595-6.59s1.154-1.825 3.118-.392c0 0 .415-2.302 1.985-1.855 0 0-.063-.927.999-.727-.204-2.765-1.234-4.286-1.93-5.045.378.004.82-.207.95-.605-1.32.262-1.85-1.174-1.85-1.174s-.922-.285-1.774-.666a10.2 10.2 0 0 0-2.413-.658c-.837-.128-1.671-.231-2.519-.224q-.221 0-.442.006l-.148.003a18 18 0 0 0-3.392.381c-.103.737-.311 1.84-.78 3.122l-.023.059-.02.054-.025.065a2 2 0 0 1-.399.492 3.1 3.1 0 0 1-1.15.64c-1.622.561-1.937.78-2.164.99a3 3 0 0 0-.503.597 3 3 0 0 0-.173.37l-.004.008-.122.278q-.115.257-.224.516c-.12.287-.327.755-.71 1.541q.325-.008.66-.01a31 31 0 0 1 2.287.075c.046.004.096.008.167.016.108.013.197.03.255.04.789-.325 1.61-.238 2.13.224.183.163.335.388.43.7a2.8 2.8 0 0 1 1.52-.572c1.398-.077 2.303.996 2.408 1.126a2.3 2.3 0 0 1 .995-.546c.976-.24 2.076.23 2.86 1.169zm17.411-6.14c.403.57.82.792 1.066.88h.007a.05.05 0 0 1-.009.098c-.303.042-.838.072-1.174-.177a7 7 0 0 1-.28-.222c-.143-.118-.272-.225-.417-.306a2 2 0 0 0-.468-.173c-.495-.11-1.042.092-1.49.277l-.077.03-.077.03-.008.004-.009.004-.008.003-.012.004-.013.006-.05.02q-.05.02-.104.034a.6.6 0 0 0-.106.036.14.14 0 0 0-.084.116.1.1 0 0 0 .024.072.12.12 0 0 0 .061.03q.03.009.06.012c.063.006.126 0 .189-.004l.087-.006a.6.6 0 0 1 .387.127c.125.097.22.2.306.295.126.139.236.259.4.315.144.05.273.045.361.042.07-.003.114-.005.121.022.017.06-.186.182-.404.244-.195.054-.446.046-.755-.105-.457-.224-.712-.136-1.046-.021-.137.047-.288.1-.472.136-1.16.232-3.356.024-4.687-2.742-1.12-2.323-2.18-2.178-3.01-2.064a4 4 0 0 1-.45.045c-.877.013-1.23-.945-1.23-.945s.694.123 1.946-.448c1.483-.674 3.839-.574 5.336.667 1.56 1.295 2.993.9 3.488.719l.058-.021.064-.024c.518-.188 1.08-.393 1.63-.246.139.037.247.106.36.179l.045.028.025.016.04.024.022.014c.157.095.313.189.478.268.217.103.446.195.681.247.043.011.043.073 0 .087a3 3 0 0 1-.97.137 3 3 0 0 1-.427-.054 3 3 0 0 0-.395-.054c-.267-.014-.53.065-.771.17q-.182.08-.36.168a7 7 0 0 1-.458.21c-.367.146-.681.17-.815.175a2 2 0 0 1-.527-.006c-.123-.016-.224-.03-.291.033a.17.17 0 0 0-.054.115c-.002.103.106.18.162.217.266.184.817.23.958.239l.041-.004.073-.007c.142-.014.303-.03.632-.03.334 0 .5.006.72.033.352.044.703.14 1.003.336.273.18.49.43.677.696m-9.492 5.031c.464-.035.767.1.971.19.156.069.255.113.324.038.174-.186-.021-.76-.294-.985l-.008-.006-.006-.004-.006-.004-.007-.005a.35.35 0 0 0-.165-.07h-.005a1.1 1.1 0 0 0-.647.062 2.6 2.6 0 0 1-.536.132l-.076.01-.069.01-.144.02-.085.009-.05.009-.15.02-.149.021c-.06.01-.598.104-.632.35a.2.2 0 0 0 .029.136c.074.14 1.11.109 1.702.064zm-37.182-1.648-.01-.003h.002c-.174-.05-.596.034-1.695.625-.605.38-1.497.695-2.3.844 0 0 1.549-1.585 2.403-2.923.582-.937.927-1.683 1.12-2.274.287-.945.208-1.474.17-1.63a1.2 1.2 0 0 0-.14-.346c-.042-.067-.037-.136 0-.204l.057.011.04.008q.127.023.256.035c.313.029.636.014.938-.076q.123-.038.242-.081.137-.05.283-.094c.178-.053.36-.095.539-.137l.02-.004c.346-.082.706-.145 1.049-.19a13 13 0 0 1 2.046-.097c.326.01.663.032.976.065a16 16 0 0 1 1.808.289 17.7 17.7 0 0 1 3.199 1.024q.168.071.332.148.106.049.208.1l.07.035s-1.148 3.096-.906 3.496c.325.533-.623 2.67-.623 2.67s-.147-.58-.669-.709c-.706-.173-1.076.38-1.076.38s0-.667-.7-.86c-.691-.192-1.103.334-1.103.334s-.089-.708-.773-.845c-.636-.127-1.033.4-1.033.4s-.112-.818-.972-.837c-.566-.013-.927.47-.927.47s-.213-.635-.977-.658h-.013c-.103-.004-.463-.014-.758.21-.067.05-.123.106-.235.22l-.007.007c-.067.088-.12.171-.147.215l-.005.008c-.032.052-.08.13-.163.217a.6.6 0 0 1-.186.154c-.14.064-.29.018-.34.003m1.32-6.657-.026-1.183.002.002c2.316 1.749 6.235-3.586 6.235-3.586l.003.005a18.5 18.5 0 0 0 2.172 3.21 3 3 0 0 0 .03 1.911c-5.079-1.753-8.417-.359-8.417-.359m12.77-4.08a9 9 0 0 0-.2-1.793 6 6 0 0 0-.179-.59 7 7 0 0 1-.152-.483l-.023-.09-.024-.09a16 16 0 0 1-1.071 1.83c-.58.854-1.091 1.424-1.2 1.546a12 12 0 0 1-1.495 1.401l.513.745c-.125.269-.385.933-.09 1.497.133.256.321.406.529.565.265.203.778.526 1.575.658q-.02-.019-.049-.054a1 1 0 0 1-.092-.143l-.039-.076-.039-.078-.027-.054a5 5 0 0 1-.186-.361 2 2 0 0 1-.177-.565.8.8 0 0 1 .251-.705c.148-.142.323-.254.497-.366q.11-.069.217-.141c.515-.355.885-.768 1.028-.981.364-.545.399-1.098.435-1.67v-.003zM9.25 9.196s.175-.14.504-.334l-.005-.001c.261-.116 1.365-.51 2.714.321 0 0-.68-.983-1.562-.878a9 9 0 0 1 .98-.316c.102-.023 1.39-.293 2.615.948 0 0-.34-1.011-1.128-1.199a9 9 0 0 1 1.06-.022c.149.018 1.419.213 2.148 1.76 0 0-.025-.985-.597-1.478q.539.156 1.004.363c.184.096 1.253.715 1.42 2.366 0 0 .32-.912-.037-1.562.386.284.65.669.885 1.013q.098.144.192.275a20.7 20.7 0 0 0 .015 3.618v.005c.036.378.074.776.131 1.196-.144-.112-1.027-.867-1.324-2.718-.057-.353-.115-.43-.274-.586-1.402-1.04-1.494-1.378-1.498-1.4-1.522-.195-1.768-.496-1.786-.521l-.067-.01c-.28-.038-1.319-.18-2.177-.007h-.005q-.197.046-.386.112a4.5 4.5 0 0 0-.91.44l-.037.027a1.7 1.7 0 0 1-.322.19 1.7 1.7 0 0 1-.682.13q-.26-.002-.511-.062a3 3 0 0 1-.611-.228c-.25-.125-.48-.28-.7-.452-1.032-.42-1.357-1.87-1.357-2.131 0 0 1.477.184 2.308 1.142m26.082 7.6c-.212-.389-.768-.416-.813-.418-.291-.009-.54-.012-.799.152-.402.257-.501.86-.697 2.041l-.007.04q-.028.158-.06.314l-.032.157-.005.024c-.048.255-.06.315-.105.406l-.006.012c-.028.056-.11.222-.298.332a1 1 0 0 1-.23.099c-.053.017-.107.034-.18.07-.204.1-.31.255-.515.562a5 5 0 0 0-.38.686 11 11 0 0 0-.588 1.592c-.014.05-.078.289-.202.768-.148.567-.208.805-.244 1.136-.054.49-.004.673.065.81.101.2.251.315.305.357.23.173.463.21.585.227.152.022.317.02.492-.016a1 1 0 0 0 .276-.081l.022-.011a2 2 0 0 0 .258-.129c.316-.19.571-.45.703-.798.09-.24.132-.495.172-.748q.023-.142.048-.282c.16-.852.55-1.547 1.104-2.207l.01-.012.01-.013q.022-.024.04-.05c.072-.113.104-.267.135-.41q.017-.088.038-.165l.186-.688.11-.426c.08-.312.161-.624.257-.93.146-.469.243-.859.305-1.119l.02-.104v-.002l.052-.262.023-.114c.034-.17.04-.197.042-.244.006-.056.026-.338-.094-.558zm-7.66-8.112-.002-.005zm-7.701 1.17c1.41-2.555 7.58-1.196 7.7-1.17.016 1.946-.246 6.11-3.087 9.804-.78 1.015-1.716 1.857-1.716 1.857-.206.186-.381.334-.502.435l-.009-.011-.01-.01-.062-.086-.047-.065a11.7 11.7 0 0 1-1.702-3.237c-.435-1.291-.533-2.333-.627-3.34a20.3 20.3 0 0 1 0-3.686q.03-.256.062-.492m-.015 7.445q-.21-.613-.36-1.18a7 7 0 0 1-.483-.497c-.326-.366-.737-.838-1.03-1.535a4.5 4.5 0 0 1-.266-.88c-.285-.975-1.114-2.037-2.72-2.478-.506-.133-1.257-.231-2.242-.085-.428.064-1.649.535-1.649.535s.759.645 1.144 1.31c.386.664.282 2.371-.943 4.485-.06.102-.112.206-.165.312l-.014.029s.14.06.23.146c.09.087.171.19.171.19v.004l.002.003c.374-.289 1.389-1.9 1.389-1.9q.008.574.076 1.143.065.561.17 1.115.09.485.202.968l.011.05c.05.212.094.4.164.653l.09.314c.051.18.103.36.132.475l.002.006c.007.03.038.154.08.31v.006q-.22.135-.445.263l-1.028.513c-.612.166-.61-.4.094-.7.692-.315 1.01-1.438-.06-1.991 0 0-.758-.434-1.242.083 0 0 .143-.515-.085-.903a1.6 1.6 0 0 0-.386-.38 2 2 0 0 0-.188-.095l-.027-.015.01-.021c.575-1.003 1.772-3.497 1.093-4.655-.72-1.227-1.438-1.303-2.1-1.372a8 8 0 0 1-.259-.03c-.744-.101-1.311-.755-1.311-.755s-.44.99-.484 1.74c-.05.836-.295 1.168-.772 1.363-.455.186-2.055.277-2.738.306a.187.187 0 0 0-.175.21.184.184 0 0 0 .188.162c.623-.018 2.2-.06 3.034.08q.18.034.304.084c.2.1.216.457.216.457.012.212-.075.463-.163.717-.085.243-.17.488-.17.705 0 .332.08.59.16.85.094.299.188.6.16 1.02-.055.893-.044 1.32.037 1.502q.013.03.029.05c.06.102.213.333.426.477q-.003 0-.005.004l.074.04q.034.019.072.036c.163.078.443.199.768.278.09.016.466.054.52-.486 0 0 .05-.287.177-.285.128.002.11.216.11.216-.014.073-.112.653.376.495.323-.146.59-.458.71-1.042 0 0 .063-.15.119-.336a.59.59 0 0 0 .453.358s.228.054.37.007c.13-.016.373-.224.441-.424.024.065.04.14.04.233 0 .418-.385.641-.782.871-.447.259-.909.527-.858 1.09.065.728.744.95 1.967.432l1.051-.55.158-.099.204-.124q.032.083.092.179c.097.152.213.25.3.31 0 0 .16.096.323.129q.167.042.381.048s.219.031.453-.041c.665-.146.895-.627.895-.627s-.904-.058-.748-.453c.076-.192.283-.177.543-.12 0 0 .107.035.32.076.132.031.27.056.403.062 0 0 .206-.004.451-.083.54-.212.743-.694.743-.694s-1.032-.004-.916-.397c.056-.193.257-.161.53-.118h.003l.325.042c.13.009.266.007.407-.018 0 0 .155-.024.411-.163.18-.112.354-.287.517-.554 0 0-.98-.074-.907-.405.04-.177.214-.156.437-.13q.096.013.2.02s.071.016.306-.02a.7.7 0 0 0 .237-.101q.151-.097.304-.192l.115-.072a16 16 0 0 1-.203-.553zm1.335-16.1.05.016-.001-.004c.105.034.778.285 1.698.634a4.6 4.6 0 0 0-.434.854c-.041.14-.103.34-.184.578-.043.127-.502 1.456-.786 1.427a2 2 0 0 1-.285-.075l-.024-.01-.025-.01-.02-.007-.005-.002-.02-.009-.016-.006-.02-.008-.018-.006-.03-.011-.055-.02-.007-.003-.013-.004a7 7 0 0 0-1.396-.327q-.083-.011-.17-.02c-1.252-.132-2.92.036-4.33 1.342l-.009.01c-.144.16-.244.335-.314.512q.009 0 .018.004l.025.003v.004l5.99 2.346-.27.107h-.001c-.027.012-.32.135-.443.341l-.048.083-.09-.034-16.09-6.333h-.014a3.2 3.2 0 0 0-1.18.213l-.003-.003-.015-.02-.009-.013a9 9 0 0 0-.373-.4C1.944 1.921 1.166 1.241.006.57 1.67.983 2.894.95 3.344.919l.05-.005.101-.01.035-.006V.9a3.1 3.1 0 0 0 .713.978l3.09 1.212a.5.5 0 0 0 .174.037 3.33 3.33 0 0 0 2.099-.908c.623-.71 2.262-2.018 6.48-2.018 1.419 0 2.945.325 4.206.688l.014.004.013.004.06.017.083.024.182.054.065.02.064.02.292.092.06.02zM.006.57H0z" fill="#CECECE"/></svg>